<svg xmlns="http://www.w3.org/2000/svg" viewBox="0 0 614.66 614.65"><defs><style></style></defs><g id="Calque_2" data-name="Calque 2"><g id="Calque_1-2" data-name="Calque 1"><path class="cls-1" d="M524.64,90A307.33,307.33,0,0,0,90,524.64,307.33,307.33,0,1,0,524.64,90Zm-25.84,389c21.56-48.44,29.14-103.71,20.23-155.12-10.1,59.48-31.78,119.29-69.89,165.73a220.32,220.32,0,0,1-18.83,20.93c17.54-47,20.33-101.38,10.24-146.64C426,427.3,404.66,500.17,355.33,544.46c-13.71,11.58-29.13,19.71-46.58,20.11h-1.92c-.86,0-1.71,0-2.58-.06a49.07,49.07,0,0,1-9.19-1.24,20.63,20.63,0,0,1-3.06-.71,50.27,50.27,0,0,1-6.09-2c-9.77-3.58-18.63-9.51-26.55-16.19-40.16-35.36-62.67-94.14-76.64-145.35-3-11.49-5.77-23.18-8.62-35.12-8,36-7.72,74.42-.11,110.87A250.19,250.19,0,0,0,184.14,510c-32.94-32.19-56.46-74.33-71.47-118.19-7.65-22.17-12.78-44.55-17-67.92-3.13,17.61-4,35.85-3.44,53.9a278,278,0,0,0,23.31,100.8,256.79,256.79,0,0,1,.37-343C94.3,184.05,86.72,239.32,95.62,290.73c10.1-59.48,31.79-119.29,69.9-165.73a221.73,221.73,0,0,1,18.82-20.94C166.81,151.11,164,205.44,174.1,250.71,188.63,187.35,210,114.49,259.32,70.2,273,58.6,288.48,50.48,305.94,50.09h1.87c.86,0,1.72,0,2.6.06a48.35,48.35,0,0,1,9.19,1.23,21.23,21.23,0,0,1,3.06.71,52.13,52.13,0,0,1,6.09,2c9.77,3.57,18.62,9.51,26.55,16.18,40.15,35.36,62.66,94.15,76.63,145.35,3,11.49,5.77,23.19,8.62,35.13,8-36,7.72-74.43.12-110.87a250,250,0,0,0-10.16-35.23C463.45,136.81,487,179,502,222.8c7.65,22.18,12.78,44.56,17,67.93,3.14-17.61,4-35.86,3.45-53.91A278.45,278.45,0,0,0,499.17,136a256.8,256.8,0,0,1-.37,343Z"/></g></g></svg>