<?xml version="1.0" encoding="UTF-8"?>
<svg id="Calque_1" data-name="Calque 1" xmlns="http://www.w3.org/2000/svg" version="1.1" viewBox="0 0 649.1 683.3">
  <defs>
    <style>
      .cls-1 {
        fill: #1c274c;
        stroke-width: 0px;
      }
    </style>
  </defs>
  <circle class="cls-1" cx="424.5" cy="258.3" r="33.3"/>
  <circle class="cls-1" cx="224.5" cy="258.3" r="33.3"/>
  <path class="cls-1" d="M648.2,507.9c-2.8-39.3-12.4-87.1-25.6-153.1l-.2-1.1c-18.8-94.1-28.3-141.3-63.3-175.4h0c-6.7-6.6-13.8-12.3-20.9-17.2-23.9-16.5-50.7-23.2-88.6-25.9v-10.2C449.5,56.1,393.4,0,324.5,0s-125,56.1-125,125v10.2c-37.8,2.7-64.5,9.4-88.5,25.9-7.2,4.9-14.2,10.7-21,17.1h-.1c-35.1,34.4-45.2,84.7-63.5,176.2v.4C13.2,420.8,3.7,468.6.8,507.9c-3.2,45,3,76.9,20.2,103.3,6.2,9.5,13.6,18.6,22,26.9h.1c22.6,22.2,52.7,34.5,97.5,40.2,39.2,4.9,87.9,4.9,155.4,4.9h56.8c67.5,0,116.3,0,155.4-4.9,44.8-5.6,74.8-18,97.5-40,8-7.8,15.4-16.8,22.1-26.9h0c17.2-26.6,23.5-58.5,20.2-103.5ZM249.5,125c0-41.4,33.6-75,75-75s75,33.6,75,75v8.5c-14.2-.2-29.7-.2-46.6-.2h-56.8c-16.9,0-32.4,0-46.6.2v-8.5ZM586.1,583.9c-4.6,7-9.7,13.2-15.1,18.5-31.6,30.8-93.9,30.8-218.1,30.8h-56.8c-124.1,0-186.4,0-218-30.8-5.9-5.8-10.9-12-15.1-18.5-24-36.9-11.8-97.9,12.5-219.4v-.4c16.9-84.2,25.4-126.5,49.3-150,4.7-4.5,9.6-8.5,14.5-11.9,27.7-19,70.9-19,156.9-19h56.8c86,0,129.2,0,156.9,19,4.9,3.3,9.7,7.3,14.4,11.9,23.9,23.3,32.3,65.5,49.1,149.3l.2,1.1c24.3,121.4,36.5,182.4,12.5,219.3Z"/>
</svg>