<?xml version="1.0" encoding="UTF-8"?>
<svg id="Calque_1" data-name="Calque 1" xmlns="http://www.w3.org/2000/svg" version="1.1" viewBox="0 0 649.1 683.3">
  <defs>
    <style>
      .cls-1 {
        fill: #000;
        stroke-width: 0px;
      }
    </style>
  </defs>
  <polygon class="cls-1" points="240.8 683.4 240.8 683.3 240.8 683.3 240.8 683.4"/>
  <path class="cls-1" d="M644.7,172h0c-.3-1.1-.6-2.2-.9-3.2l-29,12.1-.5.2,29.5-12.3-34.2-103.6C599.8,26.7,568.6,0,533,0v35.4c-.1,0-.1-35.4-.1-35.4H116.1v35.3h0s0-35.3,0-35.3C80.8,0,49.8,26.2,39.8,64.1L5.3,168.8l28.6,11.9h-.2c0,0-28.4-11.9-28.4-11.9-.3,1.1-.7,2-.9,3.1h0c-12.5,52.7,2.4,108.2,37.3,144.4l-2.1,235.9,62.8.7,1.8-201.1c22.5,4.9,46.1,2.9,68.3-6.4l-21.8-66.3h0c-19.8,8.3-42,5.1-59.4-8.4,0,0,0,0,0,0h0s0,0,0,0h0c-.2-.1-.3-.2-.5-.3-22.4-17.9-32.7-49.5-25.9-79.4l34.2-103.4-30.4-12.7,1.2.4,29.2,12.2c.3-.9.6-1.8.8-2.8,2-8.2,8.7-13.9,16.3-13.9h416.7c7.6,0,14.2,5.7,16.3,13.9.2.9.5,1.9.8,2.8h0s34.4,104.2,34.4,104.2c6.5,29.9-3.9,61.2-26.3,78.9h0c0,0-.2.1-.3.2h0s0,0,0,0h0c-17.4,13.4-39.4,16.4-59.2,8.1h0c-19.9-8.2-34.9-26.9-40.2-49.9h0s-5.7-25.4-5.7-25.4l-.3-22.9-11.4.2s0,0-.1,0l11.5-.2h0c-.2-19.5-14.4-35.2-31.8-34.9-17.3.2-31.2,16.2-31,35.8l11.7-.2s0,0-.1.1l-11.6.2.3,27.1c0,40.4-29.2,73.2-65.2,73.2v70.7c39.2,0,74.2-19.8,97.7-51,14.2,19.4,32.8,34.7,54.3,43.7h0c22.1,9.1,45.7,11.2,68.2,6.4l1.8,201.2,62.8-.7-2.1-235.9c34.9-36.2,49.7-91.7,37.4-144.3ZM34.4,181h.2c0,0,.1.1.1.1h-.3ZM64.2,193.4h-.1s0,0,0,0h0ZM614.8,181h-.3c0,.1,0,.1,0,.1h.4Z"/>
  <path class="cls-1" d="M91.3,270.6h0c0,0,0,0,0,0h0Z"/>
  <path class="cls-1" d="M546.6,553h0c.2,15.7-5.3,30.9-15.1,42.1-9.8,11.2-23.2,17.5-37.2,17.5v70.7c30.8,0,60.3-13.9,81.9-38.5,21.6-24.6,33.6-58,33.2-92.6l-62.8.8Z"/>
  <path class="cls-1" d="M102.4,553l-62.8-.8c-.4,34.6,11.6,68,33.2,92.6,0,0,0-.1.3-.3l-.3.3,44.7-49.7c-9.8-11.2-15.3-26.4-15.1-42.1ZM73.7,643.8s0,0,0,0h0ZM78,639c.6-.7,1.2-1.4,1.9-2.1l-1.9,2.1ZM81.8,634.7s0,0,0,0h0ZM89.9,625.8s0,0,0,0h0ZM91.6,623.9s0,0,0,0h0Z"/>
  <polygon class="cls-1" points="259.8 181.7 259.8 181.7 259.8 181.7 259.8 181.7"/>
  <path class="cls-1" d="M557.7,270.7h0s0,0,0,0h0Z"/>
  <path class="cls-1" d="M172.5,345.4c21.6-9,40.2-24.2,54.4-43.7,23.5,31.1,58.5,50.9,97.6,50.9v-70.7c-35.7,0-64.7-32.3-65.2-72.4,0-.7,0-1.3,0-2l.4-25.8-11.5-.2s0,0,0,0l11.6.2c.3-19.5-13.5-35.6-30.9-35.9-17.3-.3-31.6,15.2-31.9,34.7l11.6.2s0,0,0,0l-11.7-.2-.3,23.6-5.6,24.9h0s0,0,0,0v.3c0,0,0,0,0,0-5.5,23-20.4,41.5-40.2,49.7l21.8,66.3Z"/>
  <path class="cls-1" d="M439.7,506.6c0-45.5-32.7-82.4-73.2-82.5h0s-83.8,0-83.8,0h0c-40.5,0-73.3,36.9-73.3,82.5h0v106h-54.7c-14,0-27.4-6.3-37.2-17.5l-44.7,49.7h0c21.6,24.6,51.1,38.5,81.9,38.5h339.5v-70.6h0c0-.1-54.5-.1-54.5-.1v-106ZM272.2,506.6c0-6.5,4.7-11.8,10.5-11.8h83.7c5.8,0,10.5,5.3,10.5,11.8v106h-104.7v-106h0Z"/>
</svg>