<?xml version="1.0" encoding="UTF-8"?>
<svg id="Calque_1" data-name="Calque 1" xmlns="http://www.w3.org/2000/svg" version="1.1" viewBox="0 0 716.7 716.7">
  <defs>
    <style>
      .cls-1 {
        fill: #1c274c;
        stroke-width: 0px;
      }
    </style>
  </defs>
  <path class="cls-1" d="M358.3,383.3c-68.9,0-125-56.1-125-125s56.1-125,125-125,125,56.1,125,125-56.1,125-125,125ZM358.3,183.3c-41.4,0-75,33.6-75,75s33.6,75,75,75,75-33.6,75-75-33.6-75-75-75Z"/>
  <path class="cls-1" d="M358.3,716.6c-48.4,0-95.3-9.5-139.5-28.2-42.7-18-81-43.9-113.9-76.8-32.9-32.9-58.7-71.2-76.8-113.9C9.5,453.6,0,406.7,0,358.3s9.5-95.3,28.2-139.5c18-42.7,43.9-81,76.8-113.9,32.9-32.9,71.2-58.7,113.9-76.8C263,9.5,309.9,0,358.3,0s95.3,9.5,139.5,28.2c42.7,18,81,43.9,113.9,76.8,32.9,32.9,58.7,71.2,76.8,113.9,18.7,44.2,28.2,91.1,28.2,139.5s-9.5,95.3-28.2,139.5c-18,42.7-43.9,81-76.8,113.9s-71.2,58.7-113.9,76.8c-44.2,18.7-91.1,28.2-139.5,28.2ZM358.3,50c-82.4,0-159.8,32.1-218,90.3s-90.3,135.7-90.3,218,32.1,159.8,90.3,218c58.2,58.2,135.7,90.3,218,90.3s159.8-32.1,218-90.3c58.2-58.2,90.3-135.7,90.3-218s-32.1-159.8-90.3-218c-58.2-58.2-135.7-90.3-218-90.3Z"/>
  <path class="cls-1" d="M557.3,650c-13.2,0-24.2-10.3-24.9-23.6-2.8-51.5-12.7-82.5-32.9-103.5-25.7-26.6-71.8-39.6-141.1-39.6s-115.4,12.9-141.1,39.6c-20.3,21-30.1,52-32.9,103.5-.8,13.8-12.5,24.4-26.3,23.6-13.8-.8-24.3-12.5-23.6-26.3,2.5-45.5,10-97.3,46.9-135.5,18-18.6,40.9-32.1,70-41.2,29.4-9.2,64.4-13.6,107.1-13.6s77.7,4.5,107.1,13.6c29.1,9.1,52,22.6,70,41.2,36.8,38.2,44.4,89.9,46.9,135.5.8,13.8-9.8,25.6-23.6,26.3-.5,0-.9,0-1.4,0Z"/>
</svg>